<svg id="Capa_1" data-name="Capa 1" xmlns="http://www.w3.org/2000/svg" width="2020.92" height="673.33" viewBox="0 0 2020.92 673.33">
  <defs>
    <style>
      .cls-1 {
        fill: #00bf45;
      }

      .cls-2 {
        fill: #fff;
      }

      .cls-3 {
        fill: #002ea4;
      }
    </style>
  </defs>
  <g>
    <rect class="cls-1" width="2020.92" height="673.33"/>
    <g>
      <g id="dfbd28bf-afb5-4f1a-b1f9-c3c73058a1f1">
        <g>
          <g id="bfad9c6e-f385-42fb-ab78-0cd45f1d9019">
            <path id="ab237a07-2e98-4c86-8365-cb13a6c80341" class="cls-2" d="M1416.07-669.5c0,8.72-2.2,15.57-7.09,20.29s-12,6.85-21.11,6.85h-.08c-9.29,0-16.88-1.95-22.17-5.79a19.13,19.13,0,0,1-8.24-16.46c-.08-7.09,2.53-13.2,9.22-17s17-5.54,32.92-5.54h16.55Zm-32.85-112.64c-23.39,0-38.71,6.35-49.47,14.75v27.06a96.94,96.94,0,0,1,43-9.46c12.56,0,23.48,1.8,29.92,6.93s9.37,13.45,9.37,25.43v3.34h-16.63c-62.43.25-83,22.17-83.22,51s26.74,51.59,66.68,51.67h8.64c37.16-.08,62.76-23.88,62.84-58.52V-708c0-58.77-34.07-73.77-71.08-74.09M1227.79-644h.24c-12.55,0-24-3.67-31.38-12.88s-11-23.72-11-43.2c.08-26.73,16.14-48.57,38.23-48.66,12.79,0,23.39,3.59,30.48,12.64s10.68,23,10.68,43.52c0,27.55-15.16,48.58-36.93,48.58m3.26-138c-21.84,0-35.45,12.88-43.68,24.78l-3.1,4.48v-71.4h-38.31v130.25c0,55.34,33.5,82.81,77,82.81,49.63,0,80.93-38.8,81-88.44s-31.7-82.48-73-82.48m321.71-.16c-51.59.08-74.17,35.37-74.25,70.09l.25,97.4h38.06v-95.28c0-12.22,3.18-22.09,8.8-28.85s13.86-10.43,23.31-10.43c11,0,20,3.17,26.25,10.35s9.29,17.68,9.29,32v92.18h38.31v-95.28c-.08-46.7-31.87-72.21-70.83-72.3M822.7-824.94H782.76l.16,151.69c.16,38.47,19.56,61.21,61.46,61.38,17.85,0,28.53-5.79,32.93-15V-650.1c-6.93,3-16.3,4.4-27.88,4.4-8.72,0-16-2.2-20.95-7.5s-7.41-13.28-7.41-24.45v-70.67h34.15c16.71,0,23.72-10.51,23.72-18.17v-16.88H822.7ZM683.4-782.23c-51.59.09-74.17,35.38-74.25,70.1v97.48h38.31v-95.2c0-12.22,3.17-22.09,8.88-28.93s13.77-10.43,23.23-10.43c11,0,20,3.26,26.25,10.35s9.29,17.77,9.29,32v92.18h38.31v-95.2c-.09-46.7-31.87-72.21-70.83-72.29M539.05-614.65h38.31V-824.94H539.05Zm510.24-99.51v99.51h39.12v-96.91c0-13,2.61-22.33,8-28.53s13.28-8.88,23-8.88a64.91,64.91,0,0,1,10.6.9v-30.16c-4.89-2.45-11.25-4.08-19.64-4.08-43.37.08-60.89,30.32-61,63.33Zm-66.84,5.29c-7.66,2.69-20,3.75-39.86,3.75H922l.17-1.79.24-5.63c1-20,15.73-37.33,37.09-37.33,9.94,0,18.25,2.12,24.28,6.61s9.38,11.41,9.38,20.21c.16,6.36-2.94,11.57-10.68,14.18m-18.58-74c-47.28.08-80.78,34.07-80.86,89.33C883-643.26,923.2-612,964.19-612c24.37,0,39.62-3.75,48.42-11v-28c-12.55,6.2-27.47,8.15-40.59,8.15-25.27.09-45.65-13.77-48.91-35.94l-.32-2h29.5c27.72,0,47.36-2.52,59.67-8.64s17.6-15.4,17.68-30.4c0-39-31.54-63.17-65.77-63.17" transform="translate(35 1055.24)"/>
          </g>
          <g id="c9b1111f-eb3e-4dd1-bcf7-ecd14235dd48">
            <path id="_56016ccd-70ce-45f6-9a72-c035ae9ff4c9" data-name=" 56016ccd-70ce-45f6-9a72-c035ae9ff4c9" class="cls-2" d="M1733.42-701.45l-.9-1.06.9-1.06c16.87-21.19,53.39-62.52,67.08-74.91h-20.87c-13.45,0-22.74,1.47-32.44,10.44-19.31,18.25-35.29,39.69-51.67,61l-3.1,4.08.16-121.94h-38.47v210.29h38.31v-84.76l3.1,4.07C1714-670.8,1732.69-646,1754.2-624c6.77,6.77,17.45,11,26.33,10.92,10.68,0,16.71-2.69,21-7.74-10.76-12.8-54.94-64.47-68-80.45" transform="translate(35 1055.24)"/>
          </g>
        </g>
      </g>
      <g id="_72f7164b-5396-4977-9c6a-3348fe6abc60" data-name=" 72f7164b-5396-4977-9c6a-3348fe6abc60">
        <g id="_67080c82-5659-45a9-9a2a-0c729ddd9853" data-name=" 67080c82-5659-45a9-9a2a-0c729ddd9853">
          <path id="c920847b-0344-4999-b69e-b133cdd976c6" class="cls-3" d="M379.3-652.47l-160.57,29v-162l160.57-29ZM189.38-868.95a40.18,40.18,0,0,0-39.93,40.35h0v260.41H410a40.27,40.27,0,0,0,40.19-40.34h0V-868.95Z" transform="translate(35 1055.24)"/>
        </g>
      </g>
    </g>
  </g>
</svg>
